<svg width="17" height="19" viewBox="0 0 17 19" fill="none" xmlns="http://www.w3.org/2000/svg">
<mask id="mask0_2_131" style="mask-type:alpha" maskUnits="userSpaceOnUse" x="0" y="0" width="17" height="19">
<path fill-rule="evenodd" clip-rule="evenodd" d="M0.25 9.5C0.25 4.52944 3.86464 0.5 8.32353 0.5C12.7824 0.5 16.3971 4.52944 16.3971 9.5C16.3971 14.4706 12.7824 18.5 8.32353 18.5C3.86464 18.5 0.25 14.4706 0.25 9.5Z" fill="white"/>
</mask>
<g mask="url(#mask0_2_131)">
<path fill-rule="evenodd" clip-rule="evenodd" d="M0.25 9.5C0.25 4.52944 3.86464 0.5 8.32353 0.5C12.7824 0.5 16.3971 4.52944 16.3971 9.5C16.3971 14.4706 12.7824 18.5 8.32353 18.5C3.86464 18.5 0.25 14.4706 0.25 9.5Z" fill="#96172E"/>
<path fill-rule="evenodd" clip-rule="evenodd" d="M8.32393 4.69995C7.15451 4.69995 7.00775 4.70565 6.54845 4.72895C6.09005 4.75235 5.77715 4.83325 5.50336 4.95195C5.22016 5.07456 4.97992 5.23856 4.74059 5.50546C4.50107 5.77226 4.35395 6.04006 4.24361 6.35567C4.13686 6.66097 4.0642 7.00988 4.04356 7.52068C4.02302 8.03269 4.01764 8.19639 4.01764 9.5C4.01764 10.8036 4.02284 10.9667 4.04365 11.4787C4.06474 11.9897 4.13731 12.3385 4.2437 12.6437C4.35377 12.9594 4.50089 13.2272 4.74032 13.494C4.97957 13.761 5.2198 13.9254 5.50283 14.048C5.77679 14.1667 6.08978 14.2477 6.54809 14.2711C7.00739 14.2944 7.15406 14.3 8.32339 14.3C9.49289 14.3 9.63921 14.2944 10.0985 14.2711C10.5569 14.2477 10.8702 14.1667 11.1441 14.048C11.4272 13.9254 11.6671 13.761 11.9064 13.494C12.1459 13.2272 12.293 12.9594 12.4033 12.6438C12.5092 12.3385 12.5819 11.9896 12.6034 11.4788C12.624 10.9668 12.6294 10.8036 12.6294 9.5C12.6294 8.19639 12.624 8.03279 12.6034 7.52078C12.5819 7.00977 12.5092 6.66097 12.4033 6.35577C12.293 6.04007 12.1459 5.77226 11.9064 5.50546C11.6668 5.23846 11.4273 5.07446 11.1439 4.95195C10.8694 4.83325 10.5563 4.75235 10.0979 4.72895C9.63858 4.70565 9.49236 4.69995 8.32258 4.69995H8.32393ZM7.93769 5.56492C8.05233 5.56472 8.18026 5.56492 8.32397 5.56492C9.47365 5.56492 9.60991 5.56952 10.0639 5.59252C10.4837 5.61392 10.7116 5.69212 10.8634 5.75782C11.0643 5.84482 11.2076 5.94882 11.3582 6.11683C11.5089 6.28483 11.6022 6.44483 11.6804 6.66883C11.7394 6.83783 11.8096 7.09184 11.8287 7.55984C11.8494 8.06585 11.8538 8.21785 11.8538 9.49886C11.8538 10.7799 11.8494 10.9319 11.8287 11.4379C11.8095 11.9059 11.7394 12.1599 11.6804 12.3289C11.6024 12.5529 11.5089 12.7124 11.3582 12.8803C11.2075 13.0483 11.0644 13.1523 10.8634 13.2393C10.7118 13.3053 10.4837 13.3833 10.0639 13.4047C9.61 13.4277 9.47365 13.4327 8.32397 13.4327C7.17419 13.4327 7.03793 13.4277 6.58401 13.4047C6.16419 13.3831 5.93633 13.3049 5.78446 13.2392C5.58351 13.1522 5.43998 13.0482 5.28927 12.8802C5.13857 12.7122 5.04527 12.5526 4.96705 12.3285C4.90811 12.1595 4.83787 11.9055 4.81876 11.4375C4.79813 10.9315 4.794 10.7795 4.794 9.49766C4.794 8.21585 4.79813 8.06465 4.81876 7.55864C4.83796 7.09064 4.90811 6.83663 4.96705 6.66743C5.04509 6.44343 5.13857 6.28343 5.28927 6.11543C5.43998 5.94742 5.58351 5.84342 5.78446 5.75622C5.93624 5.69022 6.16419 5.61222 6.58401 5.59072C6.98123 5.57072 7.13517 5.56472 7.93769 5.56372V5.56492ZM10.6224 6.36202C10.3371 6.36202 10.1057 6.61972 10.1057 6.93782C10.1057 7.25583 10.3371 7.51383 10.6224 7.51383C10.9076 7.51383 11.1391 7.25583 11.1391 6.93782C11.1391 6.61982 10.9076 6.36182 10.6224 6.36182V6.36202ZM8.32393 7.03491C7.10275 7.03491 6.11266 8.13862 6.11266 9.49994C6.11266 10.8613 7.10275 11.9645 8.32393 11.9645C9.54511 11.9645 10.5348 10.8613 10.5348 9.49994C10.5348 8.13862 9.54502 7.03491 8.32384 7.03491H8.32393ZM8.32393 7.8999C9.11658 7.8999 9.75924 8.61621 9.75924 9.49992C9.75924 10.3835 9.11658 11.0999 8.32393 11.0999C7.5312 11.0999 6.88863 10.3835 6.88863 9.49992C6.88863 8.61621 7.5312 7.8999 8.32393 7.8999Z" fill="white"/>
</g>
</svg>
