<svg width="24" height="20" viewBox="0 0 24 20" fill="none" xmlns="http://www.w3.org/2000/svg">
<path d="M11.4 6.40002C9.744 6.40002 8.4 7.74402 8.4 9.40002C8.4 11.056 9.744 12.4 11.4 12.4C13.056 12.4 14.4 11.056 14.4 9.40002C14.4 7.74402 13.056 6.40002 11.4 6.40002ZM21.6 0.400024H2.4C1.08 0.400024 0 1.48002 0 2.80002V17.2C0 18.52 1.08 19.6 2.4 19.6H21.6C22.92 19.6 24 18.52 24 17.2V2.80002C24 1.48002 22.92 0.400024 21.6 0.400024ZM17.748 17.452L14.256 13.96C13.428 14.488 12.444 14.8 11.388 14.8C8.412 14.8 6 12.388 6 9.40002C6 6.41202 8.412 4.00002 11.4 4.00002C14.388 4.00002 16.8 6.41202 16.8 9.40002C16.8 10.456 16.488 11.428 15.96 12.268L19.452 15.748L17.748 17.452Z" fill="#96172E"/>
</svg>
