<svg width="21" height="19" viewBox="0 0 21 19" fill="none" xmlns="http://www.w3.org/2000/svg">
<path fill-rule="evenodd" clip-rule="evenodd" d="M0 9.5C0 4.52944 4.5183 0.5 10.0919 0.5C15.6655 0.5 20.1838 4.52944 20.1838 9.5C20.1838 14.4706 15.6655 18.5 10.0919 18.5C4.5183 18.5 0 14.4706 0 9.5Z" fill="#96172E"/>
<path fill-rule="evenodd" clip-rule="evenodd" d="M9.78966 7.81521L9.81084 8.12664L9.45789 8.0885C8.17313 7.94233 7.05074 7.44659 6.09776 6.61402L5.63186 6.20091L5.51186 6.50598C5.25773 7.18602 5.42009 7.90419 5.94952 8.38721C6.23189 8.65414 6.16835 8.69228 5.68128 8.53339C5.51186 8.48254 5.36362 8.44441 5.3495 8.46348C5.30009 8.50797 5.4695 9.08632 5.60363 9.31512C5.78716 9.63289 6.16129 9.94431 6.57072 10.1286L6.91662 10.2748L6.50719 10.2812C6.11188 10.2812 6.09776 10.2875 6.14012 10.421C6.2813 10.8341 6.83897 11.2726 7.46017 11.4633L7.89783 11.5967L7.51664 11.8001C6.95191 12.0925 6.28836 12.2577 5.6248 12.2704C5.30715 12.2768 5.04596 12.3022 5.04596 12.3213C5.04596 12.3848 5.90717 12.7407 6.40836 12.8806C7.91195 13.2937 9.6979 13.1157 11.0391 12.4103C11.9921 11.9082 12.9451 10.9104 13.3898 9.94431C13.6298 9.42952 13.8698 8.4889 13.8698 8.03766C13.8698 7.7453 13.891 7.70717 14.2863 7.35762C14.5192 7.15424 14.7381 6.9318 14.7804 6.86824C14.851 6.74749 14.844 6.74749 14.484 6.85553C13.8839 7.0462 13.7992 7.02078 14.0957 6.73478C14.3145 6.5314 14.5757 6.16278 14.5757 6.05474C14.5757 6.03567 14.4698 6.06745 14.3498 6.12465C14.2228 6.1882 13.9404 6.28354 13.7286 6.34074L13.3474 6.44878L13.0015 6.23905C12.811 6.12465 12.5427 5.99754 12.4015 5.9594C12.0415 5.87043 11.4909 5.88314 11.1662 5.98483C10.2838 6.27082 9.72613 7.00806 9.78966 7.81521Z" fill="white"/>
</svg>
