<svg width="19" height="19" viewBox="0 0 19 19" fill="none" xmlns="http://www.w3.org/2000/svg">
<path fill-rule="evenodd" clip-rule="evenodd" d="M0 9.5C0 4.52944 4.04269 0.5 9.0296 0.5C14.0165 0.5 18.0592 4.52944 18.0592 9.5C18.0592 14.4706 14.0165 18.5 9.0296 18.5C4.04269 18.5 0 14.4706 0 9.5Z" fill="#96172E"/>
<path fill-rule="evenodd" clip-rule="evenodd" d="M13.6441 7.27741C13.5333 6.85328 13.207 6.5193 12.7925 6.40595C12.0415 6.19995 9.0296 6.19995 9.0296 6.19995C9.0296 6.19995 6.0177 6.19995 5.2666 6.40595C4.85217 6.5193 4.52579 6.85328 4.41503 7.27741C4.21381 8.04609 4.21381 9.64995 4.21381 9.64995C4.21381 9.64995 4.21381 11.2538 4.41503 12.0225C4.52579 12.4466 4.85217 12.7806 5.2666 12.894C6.0177 13.1 9.0296 13.0999 9.0296 13.0999C9.0296 13.0999 12.0415 13.1 12.7925 12.894C13.207 12.7806 13.5333 12.4466 13.6441 12.0225C13.8454 11.2538 13.8454 9.64995 13.8454 9.64995C13.8454 9.64995 13.8454 8.04609 13.6441 7.27741Z" fill="white"/>
<path fill-rule="evenodd" clip-rule="evenodd" d="M8.12659 11.3V8.30005L10.5345 9.80011L8.12659 11.3Z" fill="#96172E"/>
</svg>
